# xmcd
#
# Track frame offsets: 
#        300
#        29185
#        45620
#        60080
#        76359
#        92445
#        97844
#        119986
#        137056
#        155742
#        167973
#        183949
#        206970
#        220461
#        242795
#
# Disc length: 3485 seconds
#
# Revision: 0
# Processed by: cddbd v1.5.2PL0 Copyright (c) Steve Scherf et al.
# Submitted via: ExactAudioCopy v0.99pb5
#
DISCID=dc0d990f
DTITLE=Hugh Laurie - Let Them Talk
DYEAR=2011
DGENRE=Blues
TTITLE0=St. James Infirmary
TTITLE1=You Dont Know My Mind
TTITLE2=Buddy Boldens Blues
TTITLE3=The Whale Has Swallowed Me
TTITLE4=John Henry (ft. Irma Thomas)
TTITLE5=They re Red Hot
TTITLE6=Six Cold Feet In the Ground
TTITLE7=The Battle of Jericho
TTITLE8=After You ve Gone (ft. Dr. John)
TTITLE9=Swanee River
TTITLE10=Police Dog Blues
TTITLE11=Tipitina
TTITLE12=Whinin Boy Blues
TTITLE13=Baby, Please Make a Change (ft. Sir Tom Jones és Irma Thomas)
TTITLE14=Let Them Talk
EXTD=
EXTT0=
EXTT1=
EXTT2=
EXTT3=
EXTT4=
EXTT5=
EXTT6=
EXTT7=
EXTT8=
EXTT9=
EXTT10=
EXTT11=
EXTT12=
EXTT13=
EXTT14=
PLAYORDER=
